# xmcd
#
# Track frame offsets: 
#        150
#        17397
#        27538
#        41905
#        61067
#        79846
#        97361
#        120502
#        151913
#        170678
#        193272
#        211325
#        224325
#        245900
#        268668
#
# Disc length: 3737 seconds
#
# Revision: 0
# Processed by: cddbd v1.5.2PL0 Copyright (c) Steve Scherf et al.
# Submitted via: ExactAudioCopy v0.99pb4
#
DISCID=dd0e970f
DTITLE=Various Artist - Indian Rezervation - Blues And More - CD 3
DYEAR=2009
DGENRE=Blues
TTITLE0=M'Girl - Kitaskinanaw
TTITLE1=Cochise Anderson - Kokopelli's Groove
TTITLE2=Keith Secola - Kokopelli Blues
TTITLE3=Jim Boyd - Inchelium
TTITLE4=George Leach - Indian Blues
TTITLE5=Derek Miller - Devil Come Down Sunday
TTITLE6=Cary Morin - Live A Little
TTITLE7=Pura Fé - Stand Up For Human Pride
TTITLE8=Charly Lowry - Brownskin
TTITLE9=Joy Harjo - Witchi Tai To
TTITLE10=Jason Burnstick Band - Ain't Goin' Down
TTITLE11=Jim Boyd - Rebel Moon
TTITLE12=The Plateros - Lord Of All
TTITLE13=Gary Farmer and The Troublemakers - Stripped Me Naked
TTITLE14=M'Girl - Healing Song
EXTD=
EXTT0=
EXTT1=
EXTT2=
EXTT3=
EXTT4=
EXTT5=
EXTT6=
EXTT7=
EXTT8=
EXTT9=
EXTT10=
EXTT11=
EXTT12=
EXTT13=
EXTT14=
PLAYORDER=
